<?xml version="1.0" encoding="UTF-8" standalone="no"?>
<!-- Created with Inkscape (http://www.inkscape.org/) -->

<svg
   id="svg2"
   viewBox="0 0 106.8135 88.218748"
   width="30.145mm"
   height="24.897mm"
   version="1.1"
   sodipodi:docname="zodiac_symbol_light.svg"
   inkscape:version="1.3.2 (091e20e, 2023-11-25, custom)"
   xmlns:inkscape="http://www.inkscape.org/namespaces/inkscape"
   xmlns:sodipodi="http://sodipodi.sourceforge.net/DTD/sodipodi-0.dtd"
   xmlns="http://www.w3.org/2000/svg"
   xmlns:svg="http://www.w3.org/2000/svg"
   xmlns:rdf="http://www.w3.org/1999/02/22-rdf-syntax-ns#"
   xmlns:cc="http://creativecommons.org/ns#"
   xmlns:dc="http://purl.org/dc/elements/1.1/">
  <defs
     id="defs1" />
  <sodipodi:namedview
     id="namedview1"
     pagecolor="#ffffff"
     bordercolor="#000000"
     borderopacity="0.25"
     inkscape:showpageshadow="2"
     inkscape:pageopacity="0.0"
     inkscape:pagecheckerboard="0"
     inkscape:deskcolor="#d1d1d1"
     inkscape:document-units="mm"
     inkscape:zoom="8.2572702"
     inkscape:cx="56.98009"
     inkscape:cy="47.049448"
     inkscape:window-width="1920"
     inkscape:window-height="991"
     inkscape:window-x="316"
     inkscape:window-y="1431"
     inkscape:window-maximized="1"
     inkscape:current-layer="svg2" />
  <metadata
     id="metadata7">
    <rdf:RDF>
      <cc:Work
         rdf:about="">
        <dc:format>image/svg+xml</dc:format>
        <dc:type
           rdf:resource="http://purl.org/dc/dcmitype/StillImage" />
      </cc:Work>
    </rdf:RDF>
  </metadata>
  <g
     id="layer1"
     transform="translate(538.22 -557.37)">
    <g
       id="g4167"
       fill-rule="evenodd">
      <path
         id="path4155"
         d="m-499.54 606.01c-0.19852 0.62939 2.3745 2.2876 3.991 1.5197 0.15869-3.6409 3.1481-3.0982 9.4702-3.0936 60.705-6.9536 36.03-4.7125 54.674-6.4397l-0.3788-3.5355c-18.226 2.1163-34.62 4.1156-50.508 6.566-8.8653 1.0132-17.476 1.1145-26.011 1.0102l-6.0609-0.12627c-3.9564-0.60475-15.236-0.16317-23.234 0.37881-1.085 1.0102-0.52556 2.3991 0 3.4093 13.89-3.0883 34.731 0.93479 38.057 0.31119z" />
      <path
         id="path4159"
         d="m-488.76 557.37c1.0714-0.0595 2.1429 0.47619 3.2143 1.6071 0.89997 7.7523 1.8774 15.66 2.3214 22.5 0.14885 3.0952 0.7233 6.1905 0 9.2857 1.1373 16.473 2.1011 38.562 2.1429 43.036l-0.35714 4.8214 0.35714 6.9643-3.3929-0.17858c0.36295-0.75769-0.0748-1.2752-0.53571-1.7857-0.31826-3.869-0.6135-7.7381 0-11.607-0.35714-1.7814-0.17857-5.9821-0.53571-7.3214l0.17857-19.107c-0.32605-7.8882-1.4181-15.01-0.89286-23.75-1.7803-18.256-2.1074-21.01-2.5-24.464z" />
      <path
         id="path4163"
         style="shape-rendering:auto;color:#000000;color-rendering:auto;solid-color:#000000;isolation:auto;block-progression:tb;text-decoration-style:solid;mix-blend-mode:normal;image-rendering:auto;white-space:normal;text-indent:0;text-decoration-line:none;text-transform:none;text-decoration-color:#000000"
         d="m-486.01 572.2c-4.7067 0.18797-9.3872 1.4484-13.623 3.4004-2.9217 1.3464-5.6117 3.2711-7.8418 5.5801-3.9799 4.1208-7.9271 8.9246-9.6543 14.672-0.68078 2.2653-0.1094 4.397-0.0527 6.0996 0.0629 1.8877 0.10238 3.8428 0.39063 5.8262 0.19747 1.3588 0.45597 2.7703 0.94336 4.1582 0.64495 1.8366 1.5353 3.555 2.5156 5.168 0.93739 1.5423 1.9189 3.3419 3.5508 4.7344 1.8863 1.6095 4.144 2.4606 6.1797 3.252 2.5408 0.98765 5.1891 1.6388 7.8281 2.0898 2.7283 0.46633 5.5313 0.73337 8.3398 0.65039 2.6194-0.0774 5.1101-0.61386 7.5059-1.0293 1.7375-0.30129 3.721-0.43197 5.6856-1.207 2.9424-1.1608 5.6741-2.8668 8.0644-4.8906 1.7086-1.4466 2.8888-3.2173 4.0918-4.7266 1.2409-1.5568 2.5071-3.1581 3.6172-4.9141 1.0442-1.6517 2.1787-3.4042 2.9043-5.4336 0.93702-2.6208 1.3532-5.3625 1.5859-8.0274 0.18378-2.1041 0.38717-4.4079-0.15625-6.7226-0.43724-1.8624-1.353-3.5144-2.334-4.9746-1.5982-2.3788-3.5618-4.5629-5.8281-6.3555-2.6697-2.1117-5.7037-3.887-8.9707-5.0078-2.6737-0.91726-5.3497-0.82174-7.666-1.1914-2.0892-0.33344-4.4153-1.2566-7.0762-1.1504zm0.10351 2.5977c1.9439-0.0776 4.1009 0.72823 6.5625 1.1211 2.645 0.42213 5.154 0.36899 7.2324 1.082 2.9355 1.0071 5.728 2.6316 8.2012 4.5879 2.0328 1.6079 3.8266 3.5945 5.2852 5.7656 0.88794 1.3217 1.6303 2.7189 1.959 4.1191 0.41874 1.7837 0.28018 3.8126 0.0977 5.9023-0.22261 2.5486-0.62049 5.0719-1.4453 7.3789-0.59305 1.6588-1.6035 3.2609-2.6523 4.9199-1.0132 1.6026-2.2174 3.1314-3.4531 4.6816-1.2897 1.618-2.3948 3.2277-3.7383 4.3652-2.1932 1.8569-4.6956 3.4099-7.3398 4.4531-1.4756 0.58214-3.2676 0.73586-5.1738 1.0664-2.4604 0.42662-4.8335 0.92204-7.1406 0.99023-2.593 0.0766-5.2239-0.16917-7.8223-0.61328-2.5135-0.42961-4.9929-1.043-7.3242-1.9492-2.0351-0.79109-3.9994-1.5832-5.4356-2.8086-1.1601-0.98986-2.0487-2.5114-3.0176-4.1055-0.91638-1.5077-1.7182-3.0707-2.2832-4.6797-0.39899-1.1362-0.63693-2.3832-0.82422-3.6719-0.25777-1.7737-0.30174-3.6304-0.36523-5.5371-0.0693-2.0833-0.46413-3.9032-0.0547-5.2656 1.5251-5.0748 5.1648-9.606 9.0352-13.613 2.0052-2.0761 4.4434-3.8203 7.0586-5.0254 3.9599-1.8248 8.3285-2.9919 12.639-3.1641z" />
    </g>
  </g>
  <path
     style="fill:#ffffff;stroke:#1beb00;stroke-width:0;stroke-linejoin:round;stroke-miterlimit:0.4"
     d="m 58.781412,93.948178 -1.226313,-0.03908 -0.05612,-0.584034 c -0.03577,-0.37229 -0.168461,-0.73305 -0.365984,-0.995048 -0.274245,-0.363764 -0.325878,-0.598964 -0.449146,-2.045938 -0.246897,-2.898173 -0.296959,-6.44758 -0.117008,-8.29572 0.187989,-1.930681 0.190141,-2.137652 0.05197,-5.000134 l -0.101057,-2.093604 -0.556017,0.09232 c -0.99357,0.164978 -5.545634,0.08319 -7.459026,-0.134019 -2.979358,-0.338218 -6.498561,-1.047874 -9.139657,-1.843035 -1.300034,-0.391404 -4.757423,-1.751922 -5.877412,-2.312821 -2.152423,-1.07795 -3.862323,-2.485424 -5.058585,-4.163884 -1.424391,-1.998544 -3.334783,-5.43138 -4.155446,-7.467032 -0.798584,-1.980887 -1.382986,-4.731258 -1.569051,-7.384421 l -0.08705,-1.24133 -0.438544,6.5e-4 c -0.2412,3.57e-4 -2.086789,-0.06052 -4.101311,-0.135287 C 12.582242,50.101884 6.8464305,50.387976 2.9670823,51.059349 0.37846697,51.507343 0.67266804,51.542179 0.37728271,50.752692 -0.13320277,49.388297 0.15068784,48.104121 0.99334324,47.965948 2.4820421,47.721841 13.690154,47.291775 18.56489,47.29171 l 3.97169,-5.2e-5 -0.06529,-0.393592 c -0.213551,-1.287406 -0.309743,-3.41499 -0.195566,-4.325573 0.283028,-2.25719 1.831707,-5.847958 3.85994,-8.949662 2.0699,-3.16542 6.147485,-7.869373 8.690709,-10.025707 4.556816,-3.863607 11.171127,-6.593342 18.149255,-7.490225 0.794905,-0.102167 1.459488,-0.199964 1.476851,-0.217326 0.06078,-0.06079 -1.469891,-14.8456426 -1.606198,-15.51431236 l -0.07163,-0.35137176 0.571495,0.07833217 c 0.67749,0.0928604 1.583527,0.56245618 2.297131,1.19059475 0.468748,0.4126093 0.521062,0.5164964 0.581449,1.1546636 0.09828,1.0386007 1.42168,12.7469426 1.492618,13.2053936 0.05132,0.331657 0.112445,0.393766 0.388453,0.39469 0.180154,6.03e-4 0.927024,0.139296 1.659712,0.308206 2.775986,0.63996 3.579257,0.77792 5.934164,1.019168 3.945023,0.404148 5.556623,0.80768 8.318166,2.082801 4.551626,2.101679 8.60457,5.219581 11.499017,8.846114 2.083037,2.609896 3.468302,5.102265 4.068945,7.32085 0.304701,1.12547 0.322877,1.34702 0.328743,4.007052 0.0034,1.548643 0.01991,2.815708 0.03666,2.815701 0.01675,-7e-6 2.005905,-0.242771 4.420347,-0.539477 8.625409,-1.059955 19.005939,-2.263481 19.059629,-2.209788 0.0737,0.07368 0.44256,3.481583 0.38327,3.540871 -0.0258,0.02575 -1.81553,0.214979 -3.9773,0.420516 -2.16177,0.205536 -5.32017,0.562529 -7.01868,0.793316 -1.6985,0.230788 -5.24083,0.691341 -7.871845,1.023452 -2.631015,0.332111 -4.955442,0.63265 -5.165392,0.667864 -0.366003,0.06139 -0.387504,0.09757 -0.521914,0.878224 -0.694382,4.032962 -2.299061,7.562312 -5.413324,11.906132 -1.253538,1.748453 -4.887392,6.366775 -5.750353,7.308213 -1.387023,1.513157 -4.429385,3.755524 -6.887257,5.076237 -2.635831,1.416337 -4.485263,1.993472 -8.233585,2.569374 -1.16564,0.179092 -2.164219,0.366256 -2.219064,0.41592 -0.05485,0.04966 -0.04295,1.654929 0.02643,3.567258 0.106209,2.927373 0.09543,3.862995 -0.06817,5.919219 -0.167313,2.102817 -0.174568,2.913556 -0.0522,5.833209 0.07817,1.865024 0.173532,3.622566 0.21192,3.90565 l 0.0698,0.514698 -0.467897,-0.02554 c -0.257343,-0.01405 -1.019737,-0.04313 -1.694209,-0.06462 z M 56.105517,72.293464 c 0.15671,-0.06014 0.186614,-1.01438 0.224895,-7.176668 0.02428,-3.90902 0.04415,-8.878077 0.04415,-11.042348 v -3.935039 l -2.783754,-0.0392 c -4.580558,-0.06451 -6.445675,0.215785 -7.298367,1.096807 -0.439086,0.453676 -0.756812,1.141535 -0.756812,1.638457 0,0.189233 -0.07065,0.440681 -0.157003,0.558774 -0.224021,0.306367 -1.414976,0.283013 -2.291491,-0.04493 -0.674492,-0.25236 -1.789392,-1.108322 -1.791096,-1.375111 -6.41e-4,-0.10013 -0.519215,-0.146387 -1.786305,-0.15934 -0.981972,-0.01004 -4.210539,-0.240921 -7.174593,-0.513074 -2.964055,-0.272153 -5.757048,-0.528333 -6.206652,-0.569291 l -0.817462,-0.07447 v 0.429956 c 0,0.662482 0.348497,3.168823 0.602447,4.332712 0.486855,2.231331 1.3559,4.228308 3.119764,7.1689 2.186257,3.644774 3.042844,4.485566 6.008399,5.897602 4.499478,2.142409 10.189039,3.546245 15.883182,3.918999 0.958663,0.06276 4.949694,-0.02409 5.180697,-0.112733 z m 9.947395,-1.690438 c 2.150111,-0.529902 5.912074,-2.570422 8.310388,-4.507625 1.280008,-1.033907 2.334746,-2.185333 4.304265,-4.698833 4.271806,-5.451674 6.105298,-8.375309 7.06079,-11.258933 0.518179,-1.563837 0.950105,-3.403772 0.827758,-3.526119 -0.04144,-0.04144 -4.315108,0.423083 -9.497044,1.032267 -5.181937,0.609185 -11.23702,1.318337 -13.45574,1.575893 -2.218719,0.257557 -4.056273,0.490521 -4.083451,0.5177 -0.02718,0.02718 0.05572,1.981268 0.184223,4.34242 0.128501,2.361154 0.343237,6.636396 0.477191,9.500539 0.133954,2.864142 0.277704,5.837233 0.319441,6.606867 l 0.07589,1.399337 2.137659,-0.343765 c 1.175713,-0.189071 2.678096,-0.476958 3.33863,-0.639748 z M 47.594422,47.53034 c 3.633408,-0.158744 8.399643,-0.486839 8.504215,-0.585408 0.04806,-0.0453 -0.04349,-1.852362 -0.20346,-4.015684 -0.473366,-6.401612 -0.589041,-9.433174 -0.515145,-13.500636 0.06432,-3.540092 0.04812,-3.954624 -0.283915,-7.266324 -0.193667,-1.931631 -0.353103,-3.530019 -0.3543,-3.551972 -0.0094,-0.171522 -3.8789,0.458711 -5.781659,0.941659 -4.965732,1.260375 -9.11863,3.272628 -12.350633,5.984395 -1.114286,0.934927 -3.261602,3.146503 -4.847335,4.992395 -3.008612,3.502212 -5.333476,7.317694 -6.38617,10.480751 -0.387707,1.16495 -0.427808,1.411771 -0.423029,2.603766 0.006,1.491146 0.174525,3.777443 0.286749,3.889667 0.251515,0.251516 16.761754,0.271746 22.354682,0.02739 z m 16.894203,-1.623366 c 6.599515,-0.976385 12.655095,-1.811603 19.789637,-2.72949 1.559185,-0.200594 2.856462,-0.3863 2.88284,-0.412678 0.02638,-0.02638 0.07893,-1.103152 0.116776,-2.392834 0.101587,-3.461454 -0.250459,-5.015023 -1.679733,-7.412607 -2.638742,-4.426449 -6.930547,-8.299638 -11.889651,-10.729953 -2.909005,-1.42562 -4.168098,-1.77356 -7.706051,-2.1295 -2.434326,-0.244909 -3.740712,-0.454602 -6.036912,-0.969011 -1.03142,-0.231064 -1.891327,-0.404097 -1.910906,-0.384518 -0.01958,0.01958 0.01332,0.523679 0.07312,1.120224 0.05979,0.596544 0.192595,2.201824 0.295117,3.567288 0.102521,1.365463 0.276262,3.654355 0.386089,5.086427 0.208542,2.719243 0.179269,5.18619 -0.07617,6.418586 -0.110215,0.531763 -0.08766,1.435351 0.111842,4.480899 0.137444,2.098151 0.281576,4.46879 0.320295,5.268085 0.09591,1.980055 0.109363,2.031021 0.514243,1.948771 0.180709,-0.03671 2.344968,-0.365071 4.809464,-0.729689 z"
     id="path1"
     transform="matrix(0.93751102,0,0,0.93751102,-3.7476231e-4,0)" />
</svg>
